<?xml version="1.0" encoding="utf-8"?>
<!DOCTYPE svg PUBLIC "-//W3C//DTD SVG 1.1//EN" "http://www.w3.org/Graphics/SVG/1.1/DTD/svg11.dtd">
<svg version="1.1" id="Layer_1" xmlns="http://www.w3.org/2000/svg" xmlns:xlink="http://www.w3.org/1999/xlink" x="0px" y="0px"
	 fill="black" width="512px" height="512px" viewBox="0 0 512 512" enable-background="new 0 0 512 512" xml:space="preserve">
<g>
	<path d="M261.581,241.771c-50.139-50.132-50.125-131.702,0-181.833c50.131-50.131,131.687-50.131,181.833,0.007
		c50.116,50.117,50.13,131.693,0,181.826C393.281,291.888,311.712,291.888,261.581,241.771z M423.825,79.532
		c-39.336-39.33-103.319-39.33-142.657-0.007c-39.324,39.338-39.324,103.321,0,142.657c39.324,39.326,103.321,39.326,142.657,0
		C463.148,182.846,463.148,118.856,423.825,79.532z"/>
	<path d="M85.472,471.772c-10.815,10.809-28.36,10.809-39.174-0.014l-14.69-14.69
		c-10.822-10.822-10.822-28.365-0.007-39.188l163.908-163.909c10.82-10.809,28.366-10.809,39.188,0.014l14.684,14.691
		c10.821,10.809,10.821,28.365,0.007,39.188L85.472,471.772z"/>
	<path d="M306.991,167.317c-7.656,0-13.851-6.194-13.851-13.852l0,0c0-7.656,6.194-13.853,13.851-13.853h88.306
		c7.656,0,13.851,6.196,13.851,13.853l0,0c0,7.658-6.194,13.852-13.851,13.852H306.991z"/>
</g>
</svg>
