<?xml version="1.0" standalone="no"?>
<!DOCTYPE svg PUBLIC "-//W3C//DTD SVG 20010904//EN"
 "http://www.w3.org/TR/2001/REC-SVG-20010904/DTD/svg10.dtd">
<svg version="1.0" xmlns="http://www.w3.org/2000/svg"
 width="1941.000000pt" height="1941.000000pt" viewBox="0 0 1941.000000 1941.000000"
 preserveAspectRatio="xMidYMid meet">
<metadata>
Created by potrace 1.14, written by Peter Selinger 2001-2017
</metadata>
<g transform="translate(0.000000,1941.000000) scale(0.100000,-0.100000)"
fill="#000000" stroke="none">
<path d="M5455 19234 c-22 -2 -96 -9 -165 -14 -176 -16 -445 -55 -618 -91
-1720 -355 -3171 -1477 -3938 -3044 -304 -623 -481 -1254 -556 -1985 -20 -195
-17 -855 5 -1050 61 -540 160 -966 333 -1425 257 -686 612 -1265 1128 -1838
l68 -77 -97 -107 c-685 -760 -1150 -1686 -1349 -2683 -80 -404 -101 -628 -101
-1100 0 -471 20 -691 101 -1101 266 -1358 1038 -2583 2154 -3418 751 -562
1648 -934 2572 -1065 324 -46 397 -51 803 -51 398 0 498 6 780 46 1138 161
2168 645 3028 1422 l87 79 118 -104 c410 -363 786 -620 1239 -847 620 -311
1206 -484 1933 -572 253 -31 892 -34 1150 -6 1077 118 2012 484 2850 1115 235
177 317 248 564 491 985 967 1574 2258 1667 3651 15 221 6 712 -16 915 -77
718 -261 1349 -575 1975 -227 455 -487 834 -848 1242 l-104 117 89 98 c739
817 1215 1804 1393 2892 56 340 65 468 65 911 0 423 -8 533 -56 845 -240 1561
-1127 2957 -2434 3832 -585 391 -1264 681 -1942 828 -444 96 -806 130 -1308
122 -348 -6 -507 -19 -801 -67 -1064 -173 -2070 -656 -2871 -1379 l-113 -102
-132 117 c-168 148 -293 249 -433 351 -821 595 -1738 947 -2760 1058 -141 16
-801 29 -910 19z"/>
</g>
</svg>
